<?xml version="1.0" encoding="UTF-8"?>
<svg id="Layer_2" data-name="Layer 2" xmlns="http://www.w3.org/2000/svg" viewBox="0 0 351.83 308.23">
  <defs>
    <style>
      .cls-1 {
        opacity: .7;
      }

      .cls-1, .cls-2, .cls-3, .cls-4, .cls-5, .cls-6, .cls-7, .cls-8, .cls-9 {
        stroke-width: 0px;
      }

      .cls-1, .cls-3, .cls-4, .cls-7, .cls-8, .cls-9 {
        fill: #f2f2f2;
      }

      .cls-2 {
        fill: #764ba2;
        opacity: .05;
      }

      .cls-3 {
        opacity: .45;
      }

      .cls-10 {
        stroke-width: 2px;
      }

      .cls-10, .cls-5, .cls-11 {
        fill: none;
      }

      .cls-10, .cls-11 {
        stroke: #f2f2f2;
        stroke-miterlimit: 10;
      }

      .cls-4 {
        opacity: .2;
      }

      .cls-6 {
        fill: #fff;
      }

      .cls-7 {
        opacity: .95;
      }

      .cls-8 {
        opacity: .85;
      }
    </style>
  </defs>
  <g id="Layer_1-2" data-name="Layer 1">
    <g>
      <polygon class="cls-7" points="121.72 5.01 168.86 87.78 203.35 56.66 121.72 5.01"/>
      <polygon class="cls-9" points="172.27 304.88 0 4.33 103.92 4.65 224.51 215.04 172.27 304.88"/>
      <polygon class="cls-10" points="233.22 200.07 121.24 4.71 225.17 5.04 285.46 110.23 233.22 200.07"/>
      <polygon class="cls-10" points="294.17 95.25 242.49 5.09 346.41 5.42 294.17 95.25"/>
      <polygon class="cls-6" points="0 34.6 0 304.6 90 304.6 90 191.62 0 34.6"/>
      <polygon class="cls-10" points="346.41 34.6 346.41 304.6 256.41 304.6 256.41 191.62 346.41 34.6"/>
      <line class="cls-11" x1="346.41" y1="34.6" x2="322.68" y2="136.25"/>
      <line class="cls-11" x1="346.41" y1="119.31" x2="322.68" y2="136.25"/>
      <line class="cls-11" x1="308.36" y1="100.99" x2="322.68" y2="136.25"/>
      <line class="cls-11" x1="272.33" y1="163.85" x2="322.68" y2="136.25"/>
      <line class="cls-11" x1="346.41" y1="183.54" x2="322.68" y2="136.25"/>
      <line class="cls-11" x1="272.33" y1="163.85" x2="303.97" y2="196.25"/>
      <line class="cls-11" x1="256.41" y1="191.62" x2="303.97" y2="196.25"/>
      <line class="cls-11" x1="322.68" y1="136.25" x2="303.97" y2="196.25"/>
      <line class="cls-11" x1="346.41" y1="183.54" x2="303.97" y2="196.25"/>
      <line class="cls-11" x1="256.41" y1="304.6" x2="301.41" y2="263.31"/>
      <line class="cls-11" x1="346.41" y1="304.6" x2="301.41" y2="263.31"/>
      <line class="cls-11" x1="346.41" y1="237.19" x2="301.41" y2="263.31"/>
      <line class="cls-11" x1="256.41" y1="238.96" x2="301.41" y2="263.31"/>
      <line class="cls-11" x1="346.41" y1="237.19" x2="303.97" y2="196.25"/>
      <line class="cls-11" x1="256.41" y1="238.96" x2="303.97" y2="196.25"/>
      <circle class="cls-9" cx="346.41" cy="304.6" r="3.63"/>
      <circle class="cls-9" cx="256.41" cy="304.6" r="3.63"/>
      <circle class="cls-9" cx="346.31" cy="35.04" r="5.42"/>
      <circle class="cls-9" cx="346.41" cy="5.42" r="5.42"/>
      <circle class="cls-9" cx="303.21" cy="30.65" r="3.58"/>
      <circle class="cls-9" cx="242.49" cy="5.09" r="4.53"/>
      <circle class="cls-9" cx="122.46" cy="4.74" r="3.69"/>
      <circle class="cls-9" cx="286.06" cy="109.87" r="4.23"/>
      <circle class="cls-9" cx="233.82" cy="199.71" r="4.53"/>
      <circle class="cls-9" cx="308.52" cy="101.39" r="4.55"/>
      <circle class="cls-9" cx="294.29" cy="94.37" r="2.88"/>
      <circle class="cls-9" cx="346.41" cy="120.42" r="4.39"/>
      <circle class="cls-9" cx="272.33" cy="163.85" r="4.77"/>
      <circle class="cls-9" cx="346.41" cy="183.54" r="4.37"/>
      <circle class="cls-9" cx="256.91" cy="191.67" r="3.32"/>
      <circle class="cls-9" cx="256.41" cy="238.96" r="4.81"/>
      <circle class="cls-9" cx="346.41" cy="237.19" r="4.37"/>
      <circle class="cls-9" cx="301.41" cy="263.31" r="3.37"/>
      <circle class="cls-9" cx="303.97" cy="196.25" r="3.53"/>
      <circle class="cls-9" cx="322.68" cy="136.25" r="3.62"/>
      <line class="cls-11" x1="346.41" y1="5.42" x2="303.21" y2="30.65"/>
      <line class="cls-11" x1="242.49" y1="5.09" x2="303.21" y2="30.65"/>
      <line class="cls-11" x1="294.17" y1="95.25" x2="303.21" y2="30.65"/>
      <polyline class="cls-8" points="225.17 5.04 121.24 4.71 203.35 56.66 225.17 5.04 203.35 56.66"/>
      <polygon class="cls-1" points="248.65 46 203.35 56.66 225.17 5.04 248.65 46"/>
      <line class="cls-5" x1="168.86" y1="87.78" x2="203.35" y2="56.66"/>
      <polygon class="cls-3" points="168.86 87.78 232.5 104.13 248.65 46 203.35 56.66 168.86 87.78"/>
      <polygon class="cls-4" points="232.5 104.13 233.22 200.07 168.86 87.78 232.5 104.13"/>
      <polygon class="cls-2" points="285.46 110.23 232.5 104.13 233.22 200.07 285.46 110.23"/>
      <line class="cls-11" x1="121.24" y1="4.71" x2="203.35" y2="56.66"/>
      <line class="cls-11" x1="225.17" y1="5.04" x2="203.35" y2="56.66"/>
      <line class="cls-11" x1="248.65" y1="46" x2="203.35" y2="56.66"/>
      <line class="cls-11" x1="168.86" y1="87.78" x2="203.35" y2="56.66"/>
      <line class="cls-11" x1="248.65" y1="46" x2="232.5" y2="104.13"/>
      <line class="cls-11" x1="168.86" y1="87.78" x2="232.5" y2="104.13"/>
      <line class="cls-11" x1="233.22" y1="200.07" x2="232.5" y2="104.13"/>
      <line class="cls-11" x1="285.46" y1="110.23" x2="232.5" y2="104.13"/>
      <circle class="cls-9" cx="224.54" cy="5.06" r="4.53"/>
      <circle class="cls-9" cx="249.36" cy="46.44" r="4.53"/>
      <circle class="cls-9" cx="233.1" cy="103.78" r="3.93"/>
      <circle class="cls-9" cx="203.95" cy="56.31" r="5.06"/>
      <circle class="cls-9" cx="169.46" cy="87.43" r="4.1"/>
    </g>
  </g>
</svg>